<svg width="808" height="758" id="svgPort" xmlns="http://www.w3.org/2000/svg" xmlns:xlink="http://www.w3.org/1999/xlink">
      <!-- This is the element before translation and rotation are applied -->
      <rect x="50" y="50" height="100" width="100" style="stroke:#000; fill: #0086B2" fill-opacity="0.2" stroke-opacity="0.2"></rect>
      <!-- Now we add a text element and apply rotate and translate to both -->
      <rect x="50" y="50" height="100" width="100" style="stroke:#000; fill: #0086B2" transform="translate(30) rotate(45 50 50)"></rect>
      <polyline id="currentDrawing" points="0,0 0,0" style="stroke:black; stroke-width:1; fill: none"></polyline>
    <polyline id="element0" points=" 68,205 72,205 81,205 87,205 95,205 102,205 109,202 115,198 119,193 124,185 130,174 135,166 139,161 144,158 150,156 152,156" style="stroke:black; stroke-width:1; fill: none"></polyline><polyline id="element1" points=" 128,222 134,222 139,222 145,222 151,222 157,219 163,212 166,205 169,196 170,186 172,175 174,167 180,160 185,156 191,153 196,151 200,151 202,151" style="stroke:black; stroke-width:1; fill: none"></polyline><polyline id="element2" points=" 143,128 146,128 151,128 159,128 167,129 172,133 178,141 182,150 186,161 188,172 190,181 191,191 193,199 195,207 201,214 204,218" style="stroke:black; stroke-width:1; fill: none"></polyline><polyline id="element3" points=" 113,180 116,180 123,181 134,183 148,184 161,186 174,186 185,186 194,181 202,172 208,159 212,142 213,128 214,120 214,116 213,114 211,111 208,111 205,110 203,110" style="stroke:black; stroke-width:1; fill: none"></polyline><polyline id="element4" points=" 382,273 451,413 474,413 515,413 618,408 695,406 738,408 758,413 764,416 731,405 712,350 801,326 784,333 770,340 756,348 744,357 732,366 722,375 713,383 707,388 700,395 696,404 690,417 686,432 680,449 674,467 669,484 664,502 662,516 661,528 661,535 657,535 643,534 619,523 590,508 566,499 545,494 532,493 521,493 513,494 507,501 502,512 499,520 497,526 496,530 496,533 496,537 496,539 496,539 496,537 495,531 493,520" style="stroke:black; stroke-width:1; fill: none"></polyline><polyline id="element5" points=" 308,309 302,303 295,296 288,288 283,280 278,274 272,268 267,265 262,264 255,264 249,264 245,267 243,270 241,272 241,272" style="stroke:black; stroke-width:1; fill: none"></polyline><polyline id="element6" points=" 150,264 152,262 158,254 162,248 166,243 171,238 177,236 182,236 187,240 192,248 196,257 200,268 203,287 205,301 208,312 215,323" style="stroke:black; stroke-width:1; fill: none"></polyline><polyline id="element7" points=" 358,78 356,78 351,78 343,78 333,86 325,101 321,114 319,128 325,138 341,148 360,151 376,148 388,136 394,119 394,103 388,95 380,93 374,96 370,101" style="stroke:black; stroke-width:1; fill: none"></polyline><polyline id="element8" points=" 297,182 297,195 297,208 300,216 310,221 329,223 345,220 352,209 351,190 340,174 323,163 305,162 287,167 271,178 262,192 258,207 257,216 257,220 260,223 262,224" style="stroke:black; stroke-width:1; fill: none"></polyline><polyline id="element9" points=" 258,253 253,249 249,245 242,242 236,242 231,246 226,253 223,260 223,270 227,279 242,286 262,287 274,284 279,278 279,272 274,267 267,264 260,264 256,264 255,264" style="stroke:black; stroke-width:1; fill: none"></polyline><polyline id="element10" points=" 181,333 181,337 185,342 196,349 215,356 240,361 270,361 292,360 303,356 308,347 310,327 310,305 303,286 294,279 285,285 277,302 275,320 275,335 287,353 298,362 309,364 317,362 321,353 322,339 318,322 308,313 292,312 265,330 248,350 229,371 214,384 201,388 183,389 167,384 151,376 136,365 123,350 115,317 113,291 113,276 116,267 121,263 124,267 126,275" style="stroke:black; stroke-width:1; fill: none"></polyline><polyline id="element11" points=" 62,300 69,293 80,286 89,282 99,281 108,282 116,294 121,318 126,344 134,367 144,378 159,381 175,370 185,350 188,322 183,302 171,294 163,294 161,294 173,304 197,313 218,317 230,316 238,303 239,277 234,251 228,243 225,241 223,246 230,272 249,293 266,304 279,308 284,305 277,277 263,252 259,246 256,243 262,244 290,262 318,285 339,303 348,308 351,310 350,305 338,275 327,238 322,211 322,192 324,181 325,179 326,178 333,191 347,215 360,231 371,244 376,254 378,262 378,265 373,264 369,259 366,252 366,248" style="stroke:black; stroke-width:1; fill: none"></polyline><polyline id="element12" points=" 417,192 411,193 404,196 398,201 394,211 392,223 396,236 409,247 430,250 454,241 464,231 468,221 463,217 453,219 444,226 439,235 440,247 448,256 457,260 464,259 468,248 469,234 466,227 460,227 453,242 451,266 451,294 452,310 452,317 453,319 448,319 435,317 418,313 398,311 376,311 358,311 348,311 345,311 344,312" style="stroke:black; stroke-width:1; fill: none"></polyline><polyline id="element13" points=" 340,403 347,398 362,385 378,365 391,345 402,329 413,315 421,310 432,309 447,324 468,350 481,366 488,376 488,380 487,382 487,383" style="stroke:black; stroke-width:1; fill: none"></polyline><polyline id="element14" points=" 381,401 388,401 401,390 422,373 443,358 460,344 468,338 474,335 480,335 488,338 489,338" style="stroke:black; stroke-width:1; fill: none"></polyline><polyline id="element15" points=" 437,402 440,399 450,388 462,369 472,350 480,328 482,315 482,303 482,296 481,286 481,275" style="stroke:black; stroke-width:1; fill: none"></polyline><polyline id="element16" points=" 523,386 523,383 523,376 523,364 521,336 517,308 511,287 505,275 496,269 478,267 455,267 432,268 415,268" style="stroke:black; stroke-width:1; fill: none"></polyline><polyline id="element17" points=" 466,192 469,194 473,198 477,204 481,214 485,229 486,247 483,269 472,286 459,303 447,318 435,332 424,348 416,362 412,379 411,391 414,399 427,404 447,406 472,401 499,381 514,365 521,351 524,329 524,289 526,252 529,233 534,223 538,214" style="stroke:black; stroke-width:1; fill: none"></polyline><polyline id="element0" points=" 232,91 234,96 235,96 233,86 230,76 230,69 232,64 235,63 240,63 246,67 251,75 254,81 255,87 255,94 255,96" style="stroke:black; stroke-width:1; fill: none"></polyline><polyline id="element1" points=" 268,76 274,79 278,78 281,74 283,69 283,63 275,66 271,76 270,89 274,96 277,101 281,103 286,104 290,101 293,96 295,92" style="stroke:black; stroke-width:1; fill: none"></polyline><polyline id="element2" points=" 298,75 301,84 306,92 309,96 312,89 315,79 315,75" style="stroke:black; stroke-width:1; fill: none"></polyline><polyline id="element3" points=" 317,76 320,81 323,82 327,82 329,77 329,72 329,67 329,62 328,56 327,56" style="stroke:black; stroke-width:1; fill: none"></polyline><polyline id="element1" points=" 722,550 722,539 714,519 704,497 700,488 696,484 692,478 684,470 676,461 672,453 668,450 662,445 649,440 633,429 617,426 591,425 573,425 569,425" style="stroke:black; stroke-width:1; fill: none"></polyline><polyline id="element2" points=" 442,436 436,443 423,453 394,472 364,492 335,511 303,525 274,537 243,543 206,545 162,544 131,535 117,524 110,512 107,488 106,455 113,428 142,408" style="stroke:black; stroke-width:1; fill: none"></polyline><polyline id="element3" points=" 12,233 31,262 54,298 75,327 96,358 122,396 150,443 187,493 214,527 227,536" style="stroke:black; stroke-width:1; fill: none"></polyline><polyline id="element4" points=" 611,57 595,103 579,148 563,188 541,239 519,300 499,355 488,394 484,406" style="stroke:black; stroke-width:1; fill: none"></polyline><polyline id="element5" points=" 515,81 529,104 545,134 562,163 577,184 596,207 603,212" style="stroke:black; stroke-width:1; fill: none"></polyline><polyline id="element6" points=" 518,175 570,160 623,146 631,142" style="stroke:black; stroke-width:1; fill: none"></polyline><polyline id="element7" points=" 514,154 569,134 627,115 648,103 661,93" style="stroke:black; stroke-width:1; fill: none"></polyline><polyline id="element8" points=" 465,131 514,111 573,91 607,73 627,58 641,49" style="stroke:black; stroke-width:1; fill: none"></polyline><polyline id="element9" points=" 566,249 582,276 604,307 620,324 630,338 637,349 649,359 669,364 695,364 712,353 719,333 720,302 718,282 715,275 690,292 669,315 664,329 664,339 656,339" style="stroke:black; stroke-width:1; fill: none"></polyline><polyline id="element10" points=" 703,150 687,176 673,197 665,209 650,227 638,242 629,255 621,269 611,287 595,305 580,325 564,349 543,380 517,416 498,442 491,452" style="stroke:black; stroke-width:1; fill: none"></polyline><polyline id="element11" points=" 395,528 418,536 454,540 483,540 504,539 521,533 537,526 552,519 568,508 580,500 592,490 612,479 632,468 649,465 672,468 683,475 688,483 690,489 694,493 699,497 705,499 713,498 723,492" style="stroke:black; stroke-width:1; fill: none"></polyline><polyline id="element12" points=" 759,487 763,487 761,483 756,485 752,488 746,490 736,493 711,493 678,494 656,494 647,491 636,487 614,480 596,474 442,474 438,477 435,480 429,486 421,496 410,515 403,534 399,549 398,561 409,564 416,562 418,555 419,549 420,545 420,543" style="stroke:black; stroke-width:1; fill: none"></polyline><polyline id="element13" points=" 295,442 301,461 308,479 309,490 310,510 305,532 300,545 300,546" style="stroke:black; stroke-width:1; fill: none"></polyline><polyline id="element14" points=" 243,462 232,488 215,518 194,539 167,550 156,551" style="stroke:black; stroke-width:1; fill: none"></polyline><polyline id="element15" points=" 37,413 51,413 80,406 98,395 107,386 114,377 116,374" style="stroke:black; stroke-width:1; fill: none"></polyline><polyline id="element16" points=" 720,78 735,96 743,110 748,125 754,141 759,160 764,180 764,198 765,219 765,242 765,262 765,278 764,292 761,305 759,316 758,320 758,321" style="stroke:black; stroke-width:1; fill: none"></polyline><polyline id="element17" points=" 705,213 719,215 736,219 754,226 762,231 771,237 780,245 787,252 794,259 803,269 800,308 776,309 760,310 755,308 753,300 748,287 741,277 737,268 731,264 727,259 725,259" style="stroke:black; stroke-width:1; fill: none"></polyline><polyline id="element18" points="" style="stroke:black; stroke-width:1; fill: none"></polyline><polyline id="element19" points=" 417,131 409,156 408,175 416,189 425,197 442,204 459,204 461,204" style="stroke:black; stroke-width:1; fill: none"></polyline><polyline id="element20" points=" 61,111 61,115 62,118 65,120 66,121" style="stroke:black; stroke-width:1; fill: none"></polyline><polyline id="element21" points=" 92,107 93,113 94,116" style="stroke:black; stroke-width:1; fill: none"></polyline><polyline id="element22" points=" 56,130 60,135 61,139 65,143 71,147 77,149 82,150 89,150 94,149 98,145 101,142 105,137 108,136" style="stroke:black; stroke-width:1; fill: none"></polyline><polyline id="element23" points=" 353,37 388,62 422,82 440,93 452,101 466,116 481,133 495,154 510,183 527,218 542,250 558,282 565,300 567,307" style="stroke:black; stroke-width:1; fill: none"></polyline><polyline id="element24" points=" 686,157 688,188 691,227 696,249 702,269 713,296 733,332 747,352 755,363 769,382 789,399 806,405 800,359 793,357 790,359 790,364 789,372 785,381 777,391 770,403 765,413 762,421 760,422" style="stroke:black; stroke-width:1; fill: none"></polyline><polyline id="element25" points=" 51,484 96,477 145,471 193,467 238,461 263,458 274,453 280,453 289,452 291,452" style="stroke:black; stroke-width:1; fill: none"></polyline><polyline id="element26" points=" 219,413 222,425 230,449 242,468 257,488 269,506 272,512" style="stroke:black; stroke-width:1; fill: none"></polyline><polyline id="element27" points=" 334,426 345,457 357,485 363,498 367,501" style="stroke:black; stroke-width:1; fill: none"></polyline><polyline id="element28" points=" 335,473 340,486 345,500 349,511 350,517" style="stroke:black; stroke-width:1; fill: none"></polyline><polyline id="element0" points=" 223,126 231,142 250,177 272,220 298,264 320,312 338,348 346,368 347,372" style="stroke:black; stroke-width:1; fill: none"></polyline><polyline id="element1" points=" 284,136 272,172 257,229 244,289 235,342 229,389 227,404 227,406" style="stroke:black; stroke-width:1; fill: none"></polyline><polyline id="element2" points=" 249,125 243,148 237,195 228,249 224,307 222,359 221,385 221,387" style="stroke:black; stroke-width:1; fill: none"></polyline><polyline id="element3" points=" 308,156 300,192 279,251 259,316 248,370 245,397 245,403" style="stroke:black; stroke-width:1; fill: none"></polyline><polyline id="element4" points=" 357,216 340,248 312,297 290,346 273,387 266,404 266,406" style="stroke:black; stroke-width:1; fill: none"></polyline><polyline id="element5" points=" 383,305 370,320 344,343 322,360 312,371 306,375 305,376" style="stroke:black; stroke-width:1; fill: none"></polyline></svg>
