<svg width="808" height="758" id="svgPort" xmlns="http://www.w3.org/2000/svg" xmlns:xlink="http://www.w3.org/1999/xlink">
      <!-- This is the element before translation and rotation are applied -->
      <rect x="50" y="50" height="100" width="100" style="stroke:#000; fill: #0086B2" fill-opacity="0.2" stroke-opacity="0.2"></rect>
      <!-- Now we add a text element and apply rotate and translate to both -->
      <rect x="50" y="50" height="100" width="100" style="stroke:#000; fill: #0086B2" transform="translate(30) rotate(45 50 50)"></rect>
      <polyline id="currentDrawing" points=" 382,273  431,413 443,413 443,413 451,413 451,413 461,413 461,413 474,413 474,413 488,413 515,413 515,413 537,413 584,411 607,409 618,408 639,407 659,406 678,406 695,406 709,406 724,406 729,406 738,408 746,409 753,411 755,412 758,413 761,414 763,414 764,415 764,416 763,416 758,416 753,415 731,405 706,383 702,378 698,363 712,350 776,328 805,324 805,324 801,326 797,328 792,329 788,331 784,333 781,335 777,336 773,338 770,340 766,342 763,344 760,346 756,348 753,350 750,353 747,355 744,357 741,360 738,362 735,364 732,366 730,369 728,371 725,373 722,375 720,377 718,379 715,381 713,383 711,384 710,385 708,386 707,388 705,390 703,391 702,393 700,395 700,396 698,399 697,401 696,404 694,406 693,410 691,413 690,417 689,421 688,424 687,428 686,432 684,436 683,440 681,444 680,449 679,453 677,458 676,463 674,467 673,472 671,476 670,480 669,484 668,486 666,495 665,498 664,502 664,505 663,509 662,513 662,516 662,518 662,523 661,525 661,528 661,530 661,533 661,534 661,535 661,535 661,535 659,535 657,535 654,535 652,535 648,535 643,534 637,532 631,529 626,527 619,523 612,520 605,516 598,512 590,508 586,507 580,504 573,501 566,499 560,497 555,496 550,495 545,494 541,493 538,493 535,493 532,493 529,493 525,493 523,493 521,493 519,493 517,493 515,493 513,494 511,495 510,497 508,499 507,501 506,504 504,506 503,509 502,512 501,513 500,515 499,518 499,520 498,522 497,524 497,525 497,526 497,527 496,528 496,529 496,530 496,531 496,532 496,533 496,533 496,534 496,535 496,536 496,537 496,538 496,538 496,539 496,539 496,539 496,540" style="stroke:black; stroke-width:1; fill: none"></polyline>
    <polyline id="element0" points=" 68,205 72,205 81,205 87,205 95,205 102,205 109,202 115,198 119,193 124,185 130,174 135,166 139,161 144,158 150,156 152,156" style="stroke:black; stroke-width:1; fill: none"></polyline><polyline id="element1" points=" 128,222 134,222 139,222 145,222 151,222 157,219 163,212 166,205 169,196 170,186 172,175 174,167 180,160 185,156 191,153 196,151 200,151 202,151" style="stroke:black; stroke-width:1; fill: none"></polyline><polyline id="element2" points=" 143,128 146,128 151,128 159,128 167,129 172,133 178,141 182,150 186,161 188,172 190,181 191,191 193,199 195,207 201,214 204,218" style="stroke:black; stroke-width:1; fill: none"></polyline><polyline id="element3" points=" 113,180 116,180 123,181 134,183 148,184 161,186 174,186 185,186 194,181 202,172 208,159 212,142 213,128 214,120 214,116 213,114 211,111 208,111 205,110 203,110" style="stroke:black; stroke-width:1; fill: none"></polyline><polyline id="element4" points=" 382,273 451,413 474,413 515,413 618,408 695,406 738,408 758,413 764,416 731,405 712,350 801,326 784,333 770,340 756,348 744,357 732,366 722,375 713,383 707,388 700,395 696,404 690,417 686,432 680,449 674,467 669,484 664,502 662,516 661,528 661,535 657,535 643,534 619,523 590,508 566,499 545,494 532,493 521,493 513,494 507,501 502,512 499,520 497,526 496,530 496,533 496,537 496,539 496,539 496,537 495,531 493,520" style="stroke:black; stroke-width:1; fill: none"></polyline><polyline id="element5" points=" 308,309 302,303 295,296 288,288 283,280 278,274 272,268 267,265 262,264 255,264 249,264 245,267 243,270 241,272 241,272" style="stroke:black; stroke-width:1; fill: none"></polyline><polyline id="element6" points=" 150,264 152,262 158,254 162,248 166,243 171,238 177,236 182,236 187,240 192,248 196,257 200,268 203,287 205,301 208,312 215,323" style="stroke:black; stroke-width:1; fill: none"></polyline><polyline id="element7" points=" 358,78 356,78 351,78 343,78 333,86 325,101 321,114 319,128 325,138 341,148 360,151 376,148 388,136 394,119 394,103 388,95 380,93 374,96 370,101" style="stroke:black; stroke-width:1; fill: none"></polyline><polyline id="element8" points=" 297,182 297,195 297,208 300,216 310,221 329,223 345,220 352,209 351,190 340,174 323,163 305,162 287,167 271,178 262,192 258,207 257,216 257,220 260,223 262,224" style="stroke:black; stroke-width:1; fill: none"></polyline><polyline id="element9" points=" 258,253 253,249 249,245 242,242 236,242 231,246 226,253 223,260 223,270 227,279 242,286 262,287 274,284 279,278 279,272 274,267 267,264 260,264 256,264 255,264" style="stroke:black; stroke-width:1; fill: none"></polyline><polyline id="element10" points=" 181,333 181,337 185,342 196,349 215,356 240,361 270,361 292,360 303,356 308,347 310,327 310,305 303,286 294,279 285,285 277,302 275,320 275,335 287,353 298,362 309,364 317,362 321,353 322,339 318,322 308,313 292,312 265,330 248,350 229,371 214,384 201,388 183,389 167,384 151,376 136,365 123,350 115,317 113,291 113,276 116,267 121,263 124,267 126,275" style="stroke:black; stroke-width:1; fill: none"></polyline><polyline id="element11" points=" 62,300 69,293 80,286 89,282 99,281 108,282 116,294 121,318 126,344 134,367 144,378 159,381 175,370 185,350 188,322 183,302 171,294 163,294 161,294 173,304 197,313 218,317 230,316 238,303 239,277 234,251 228,243 225,241 223,246 230,272 249,293 266,304 279,308 284,305 277,277 263,252 259,246 256,243 262,244 290,262 318,285 339,303 348,308 351,310 350,305 338,275 327,238 322,211 322,192 324,181 325,179 326,178 333,191 347,215 360,231 371,244 376,254 378,262 378,265 373,264 369,259 366,252 366,248" style="stroke:black; stroke-width:1; fill: none"></polyline><polyline id="element12" points=" 417,192 411,193 404,196 398,201 394,211 392,223 396,236 409,247 430,250 454,241 464,231 468,221 463,217 453,219 444,226 439,235 440,247 448,256 457,260 464,259 468,248 469,234 466,227 460,227 453,242 451,266 451,294 452,310 452,317 453,319 448,319 435,317 418,313 398,311 376,311 358,311 348,311 345,311 344,312" style="stroke:black; stroke-width:1; fill: none"></polyline><polyline id="element13" points=" 340,403 347,398 362,385 378,365 391,345 402,329 413,315 421,310 432,309 447,324 468,350 481,366 488,376 488,380 487,382 487,383" style="stroke:black; stroke-width:1; fill: none"></polyline><polyline id="element14" points=" 381,401 388,401 401,390 422,373 443,358 460,344 468,338 474,335 480,335 488,338 489,338" style="stroke:black; stroke-width:1; fill: none"></polyline><polyline id="element15" points=" 437,402 440,399 450,388 462,369 472,350 480,328 482,315 482,303 482,296 481,286 481,275" style="stroke:black; stroke-width:1; fill: none"></polyline><polyline id="element16" points=" 523,386 523,383 523,376 523,364 521,336 517,308 511,287 505,275 496,269 478,267 455,267 432,268 415,268" style="stroke:black; stroke-width:1; fill: none"></polyline><polyline id="element17" points=" 466,192 469,194 473,198 477,204 481,214 485,229 486,247 483,269 472,286 459,303 447,318 435,332 424,348 416,362 412,379 411,391 414,399 427,404 447,406 472,401 499,381 514,365 521,351 524,329 524,289 526,252 529,233 534,223 538,214" style="stroke:black; stroke-width:1; fill: none"></polyline></svg>
